HIERARCHY
ROOT SimulationBone
{
	OFFSET 0.000000 0.000000 0.000000
	CHANNELS 6 Xposition Yposition Zposition Zrotation Yrotation Xrotation 
	JOINT Hips
	{
		OFFSET 0.000000 0.000000 0.000000
		CHANNELS 6 Xposition Yposition Zposition Zrotation Yrotation Xrotation 
		JOINT LeftUpLeg
		{
			OFFSET 0.103457 1.857818 10.548502
			CHANNELS 3 Zrotation Yrotation Xrotation
			JOINT LeftLeg
			{
				OFFSET 43.500000 -0.000011 -0.000004
				CHANNELS 3 Zrotation Yrotation Xrotation
				JOINT LeftFoot
				{
					OFFSET 42.372192 -0.000004 -0.000008
					CHANNELS 3 Zrotation Yrotation Xrotation
					JOINT LeftToe
					{
						OFFSET 17.300014 0.000006 0.000001
						CHANNELS 3 Zrotation Yrotation Xrotation
						End Site
						{
							OFFSET 0.000000 0.000000 0.000000
						}
					}
				}
			}
		}
		JOINT RightUpLeg
		{
			OFFSET 0.103457 1.857817 -10.548505
			CHANNELS 3 Zrotation Yrotation Xrotation
			JOINT RightLeg
			{
				OFFSET 43.500046 -0.000004 0.000011
				CHANNELS 3 Zrotation Yrotation Xrotation
				JOINT RightFoot
				{
					OFFSET 42.372257 0.000000 0.000015
					CHANNELS 3 Zrotation Yrotation Xrotation
					JOINT RightToe
					{
						OFFSET 17.300003 -0.000000 0.000002
						CHANNELS 3 Zrotation Yrotation Xrotation
						End Site
						{
							OFFSET 0.000000 0.000000 0.000000
						}
					}
				}
			}
		}
		JOINT Spine
		{
			OFFSET 6.901961 -2.603721 -0.000001
			CHANNELS 3 Zrotation Yrotation Xrotation
			JOINT Spine1
			{
				OFFSET 12.588108 0.000002 -0.000001
				CHANNELS 3 Zrotation Yrotation Xrotation
				JOINT Spine2
				{
					OFFSET 12.343199 -0.000020 0.000006
					CHANNELS 3 Zrotation Yrotation Xrotation
					JOINT Neck
					{
						OFFSET 25.832905 0.000017 0.000000
						CHANNELS 3 Zrotation Yrotation Xrotation
						JOINT Head
						{
							OFFSET 11.766604 -0.000006 0.000004
							CHANNELS 3 Zrotation Yrotation Xrotation
							End Site
							{
								OFFSET 0.000000 0.000000 0.000000
							}
						}
					}
					JOINT LeftShoulder
					{
						OFFSET 19.745903 -1.480350 6.000100
						CHANNELS 3 Zrotation Yrotation Xrotation
						JOINT LeftArm
						{
							OFFSET 11.284130 -0.000016 -0.000016
							CHANNELS 3 Zrotation Yrotation Xrotation
							JOINT LeftForeArm
							{
								OFFSET 33.000046 0.000004 0.000031
								CHANNELS 3 Zrotation Yrotation Xrotation
								JOINT LeftHand
								{
									OFFSET 25.199999 0.000027 0.000001
									CHANNELS 3 Zrotation Yrotation Xrotation
									End Site
									{
										OFFSET 0.000000 0.000000 0.000000
									}
								}
							}
						}
					}
					JOINT RightShoulder
					{
						OFFSET 19.746094 -1.480375 -6.000080
						CHANNELS 3 Zrotation Yrotation Xrotation
						JOINT RightArm
						{
							OFFSET 11.284131 -0.000016 -0.000017
							CHANNELS 3 Zrotation Yrotation Xrotation
							JOINT RightForeArm
							{
								OFFSET 33.000095 0.000009 0.000020
								CHANNELS 3 Zrotation Yrotation Xrotation
								JOINT RightHand
								{
									OFFSET 25.199789 0.000132 0.000423
									CHANNELS 3 Zrotation Yrotation Xrotation
									End Site
									{
										OFFSET 0.000000 0.000000 0.000000
									}
								}
							}
						}
					}
				}
			}
		}
	}
}
MOTION
Frames: 14
Frame Time: 0.016667
231.514083 0.000000 507.145218 0.000000 91.804942 0.000000 -3.502059 86.755599 2.863615 89.752867 3.129698 177.589179 166.727889 13.009465 170.519509 -25.220203 -2.690604 -8.150063 82.988827 8.991521 15.807851 21.454552 0.003096 0.000000 163.669316 9.301772 -165.973352 -84.325070 -2.307114 3.659776 68.482984 -1.706201 2.341281 21.454556 -0.003105 -0.000020 9.464403 -1.703763 0.527498 8.906061 -3.443007 0.922686 8.587399 -3.437241 0.943500 1.868729 -6.706574 0.378590 -25.506066 12.306578 -6.286308 -176.849087 -75.797857 -4.709918 -21.235345 57.203866 -3.697770 -27.347798 -13.507971 1.085777 21.496658 4.073295 -9.203161 -170.323465 74.477528 11.337968 -12.591125 -62.102064 -7.458087 -65.444495 16.341419 -2.435300 10.314209 2.162434 -36.846725 
231.737813 0.000000 505.236469 0.000000 93.473887 0.000000 -3.617405 87.124298 2.799239 89.356123 3.460179 178.273534 168.624844 12.829691 172.347803 -24.073459 -2.822062 -7.533918 83.025388 8.560580 15.738274 21.454553 0.003091 -0.000001 160.812965 9.277603 -166.850566 -85.255998 -2.655038 5.437721 68.023021 -3.115999 1.985223 21.454555 -0.003105 -0.000020 9.448272 -1.489317 0.380496 8.878249 -3.003402 0.645821 8.559707 -2.999307 0.663973 2.141496 -6.692582 -0.302689 -25.386994 12.665101 -7.124599 -177.936496 -75.769578 -3.598047 -22.512854 57.745552 -0.207281 -28.561448 -13.871525 1.130268 16.604921 1.981710 0.848529 -168.108576 73.982262 13.607770 -10.436994 -62.423604 -9.940799 -62.190948 16.949121 -2.347898 10.846738 2.302236 -32.516532 
231.913330 0.000000 503.319217 0.000000 95.136851 0.000000 -3.754301 87.397564 2.774385 88.977092 3.713963 178.980010 170.346911 12.614910 174.301508 -23.218960 -2.979280 -7.110667 83.172412 8.228241 15.602941 21.454551 0.003096 -0.000001 158.135321 9.248603 -167.903937 -85.631551 -2.986013 7.441317 67.987493 -4.204197 3.011215 21.454556 -0.003107 -0.000018 9.435316 -1.305360 0.242250 8.855704 -2.625427 0.384016 8.537249 -2.622922 0.399879 2.479861 -6.546862 -1.071811 -25.201120 13.072584 -8.041348 -179.163177 -75.867650 -2.345773 -24.137877 58.047048 2.640325 -30.186207 -14.194412 1.181046 12.042126 0.112527 11.777925 -166.210539 73.475214 15.556193 -8.465751 -62.684640 -12.134329 -58.473084 17.420883 -2.239598 11.047636 2.649718 -27.447903 
232.043730 0.000000 501.388763 0.000000 96.788814 0.000000 -3.918039 87.574409 2.782525 88.622811 3.868556 179.706868 171.884279 12.382288 176.254234 -22.698283 -3.145501 -6.803091 83.445492 7.946807 15.428660 21.454550 0.003100 0.000000 155.577462 9.158201 -169.020449 -85.530196 -3.236835 9.338160 68.434861 -5.392465 3.558638 21.454558 -0.003110 -0.000015 9.434858 -1.157923 0.100108 8.857573 -2.320132 0.111354 8.539184 -2.319283 0.125372 2.835441 -6.318542 -1.901208 -25.004211 13.544249 -9.033640 179.563583 -76.101102 -1.048878 -26.093586 58.115940 4.770228 -32.335744 -14.435974 1.240432 8.132632 -0.618547 22.819932 -164.739927 72.974031 17.068731 -6.747097 -62.846693 -14.024096 -54.436962 17.683390 -2.110295 11.123887 2.985494 -22.192828 
232.129978 0.000000 499.446899 0.000000 98.420652 0.000000 -4.100382 87.673730 2.819466 88.300607 3.939469 -179.528488 173.264864 12.122408 178.109783 -22.492442 -3.298205 -6.517432 83.821527 7.662748 15.239470 21.454552 0.003091 0.000000 153.108489 8.962905 -170.064766 -85.006706 -3.340860 10.780300 69.278627 -7.036074 1.834220 21.454558 -0.003112 -0.000012 9.456841 -1.042504 -0.057260 8.904075 -2.077537 -0.194555 8.585745 -2.078538 -0.181995 3.157068 -6.065542 -2.766469 -24.847990 14.091660 -10.101283 178.300260 -76.467820 0.234097 -28.354147 57.955694 6.195593 -35.041856 -14.575473 1.308812 5.409313 0.318853 33.217636 -163.748781 72.500068 18.090520 -5.342828 -62.881847 -15.611088 -50.235070 17.679861 -1.966894 11.226536 3.094597 -17.225350 
232.168940 0.000000 497.494714 0.000000 100.021489 0.000000 -4.295160 87.743584 2.888393 88.023680 4.022094 -178.694461 174.548011 11.751489 179.869808 -22.509167 -3.399857 -6.188315 84.214025 7.343188 15.025059 21.454555 0.003084 0.000000 150.818827 8.741489 -171.030928 -84.063051 -3.332069 11.817917 69.949223 -8.711959 -0.979120 21.454558 -0.003111 -0.000011 9.510771 -0.935337 -0.232060 9.014202 -1.849784 -0.536308 8.695938 -1.852849 -0.525116 3.392037 -5.829810 -3.653604 -24.741541 14.709774 -11.237983 176.964478 -76.948326 1.586921 -30.908121 57.572209 7.017800 -38.161181 -14.631852 1.386790 4.168793 2.527733 42.545148 -163.168082 72.071920 18.691276 -4.278192 -62.803205 -16.918799 -46.025184 17.399832 -1.814417 11.363743 2.887560 -12.825332 
232.156468 0.000000 495.528108 0.000000 101.579219 0.000000 -4.504113 87.820406 2.990546 87.803841 4.188964 -177.774336 175.773345 11.207403 -178.460596 -22.674775 -3.418761 -5.767779 84.541846 6.965453 14.774816 21.454553 0.003094 0.000000 148.796202 8.567439 -171.925287 -82.706880 -3.255178 12.577132 69.926458 -9.939572 -3.078789 21.454558 -0.003108 -0.000015 9.605157 -0.817507 -0.422627 9.204705 -1.598842 -0.909001 8.886519 -1.604163 -0.899321 3.493193 -5.642046 -4.551892 -24.676802 15.385532 -12.431815 175.431912 -77.519383 3.136032 -33.721460 56.978990 7.355357 -41.510718 -14.633932 1.474567 4.406520 5.390191 50.550157 -162.904097 71.701834 18.966496 -3.538800 -62.637200 -18.000419 -41.971100 16.860958 -1.659306 11.502592 2.332498 -9.236091 
232.090427 0.000000 493.542876 0.000000 103.081538 0.000000 -4.736743 87.864990 3.111203 87.650519 4.339777 -176.825918 176.895916 10.608001 -176.938673 -23.064289 -3.359418 -5.246694 84.807077 6.528109 14.509188 21.454550 0.003106 0.000001 147.011201 8.374301 -172.641624 -81.004834 -3.103788 13.088950 69.841559 -10.413148 -3.389073 21.454560 -0.003104 -0.000018 9.745442 -0.708947 -0.621119 9.486439 -1.364630 -1.298327 9.168336 -1.372308 -1.290058 3.434092 -5.499905 -5.451340 -24.619878 16.090385 -13.653815 173.565761 -78.165629 5.019748 -36.690273 56.214354 7.275335 -44.918646 -14.610664 1.568458 5.749078 8.180950 57.071656 -162.849180 71.388991 19.026312 -3.017292 -62.428596 -18.976211 -38.256015 16.150699 -1.515465 11.579472 1.487044 -6.727454 
231.971569 0.000000 491.538363 0.000000 104.517541 0.000000 -4.997564 87.839843 3.230149 87.567752 4.374799 -175.932306 177.888063 10.067063 -175.621992 -23.720382 -3.249092 -4.642495 85.015913 6.047649 14.254823 21.454549 0.003106 0.000001 145.418434 8.082573 -173.081668 -78.987353 -2.853627 13.321182 70.395472 -10.010678 -1.645082 21.454561 -0.003102 -0.000017 9.933480 -0.631513 -0.815241 9.863397 -1.191277 -1.681400 9.545374 -1.201273 -1.674170 3.202936 -5.393616 -6.338618 -24.535722 16.794127 -14.867762 171.240996 -78.867230 7.363892 -39.688545 55.325902 6.820416 -48.236939 -14.580695 1.666093 7.631624 10.345137 61.938501 -162.909414 71.128956 18.967057 -2.590295 -62.220911 -19.976696 -35.051921 15.377199 -1.386943 11.557043 0.431410 -5.549152 
231.801554 0.000000 489.515477 0.000000 105.878025 0.000000 -5.283189 87.789970 3.329450 87.532407 4.370043 -175.201106 178.837343 9.484104 -174.539624 -24.408875 -3.180946 -4.037000 85.108739 5.591000 14.033361 21.454550 0.003099 0.000001 144.014688 7.683504 -173.316009 -76.481828 -2.466961 13.080500 71.239022 -9.321058 0.007333 21.454562 -0.003103 -0.000016 10.159109 -0.576009 -0.980691 10.315150 -1.062323 -2.008883 9.997201 -1.074299 -2.002424 2.827143 -5.314946 -7.187263 -24.416226 17.470961 -16.029213 168.495302 -79.588268 10.129272 -42.559471 54.376883 6.004727 -51.398870 -14.519411 1.763794 9.510482 11.650746 65.182414 -163.032708 70.917790 18.842227 -2.169407 -62.043715 -21.100492 -32.479212 14.658305 -1.284388 11.457974 -0.768486 -5.844455 
231.579449 0.000000 487.477760 0.000000 107.155695 0.000000 -5.588065 87.761795 3.398291 87.506943 4.415927 -174.736123 179.813383 8.745631 -173.725551 -24.908117 -3.248452 -3.498971 85.027651 5.215144 13.858515 21.454550 0.003096 0.000001 142.788349 7.170787 -173.440578 -73.325206 -1.912757 12.248497 71.818050 -8.838428 -0.312797 21.454559 -0.003106 -0.000018 10.407266 -0.530477 -1.095810 10.811419 -0.956231 -2.236445 10.493529 -0.969583 -2.230626 2.348284 -5.258238 -7.965384 -24.264968 18.098750 -17.092389 165.469442 -80.287017 13.173068 -45.154392 53.431140 4.840393 -54.363045 -14.397839 1.855596 10.921880 12.022852 66.885596 -163.181433 70.753704 18.690543 -1.686318 -61.915119 -22.423441 -30.618618 14.097445 -1.210817 11.328735 -2.060536 -7.663604 
231.302631 0.000000 485.431558 0.000000 108.344068 0.000000 -5.912575 87.724922 3.439428 87.431734 4.484958 -174.594668 -179.275595 7.914797 -173.232367 -25.315521 -3.454835 -2.991203 84.789646 4.888379 13.713153 21.454551 0.003096 0.000001 141.652371 6.499205 -173.477352 -69.579355 -1.293300 11.138752 72.086143 -8.263138 -0.998605 21.454558 -0.003109 -0.000020 10.655579 -0.502087 -1.161748 11.307850 -0.888179 -2.367054 10.989999 -0.902323 -2.361645 1.826066 -5.230478 -8.632916 -24.110120 18.666282 -18.015619 162.458137 -80.904731 16.198610 -47.347027 52.536533 3.413343 -57.113973 -14.211278 1.939539 11.588856 11.618084 67.250506 -163.329794 70.642813 18.538671 -1.120206 -61.825306 -23.960480 -29.446324 13.725035 -1.163422 11.213820 -3.417183 -10.787303 
230.970323 0.000000 483.382970 0.000000 109.437378 0.000000 -6.257511 87.645507 3.455990 87.249857 4.541497 -174.803526 -178.532646 7.084804 -173.088342 -25.767143 -3.762693 -2.472256 84.421428 4.576498 13.589564 21.454552 0.003097 0.000001 140.536927 5.612965 -173.394282 -65.295676 -0.737785 10.038190 72.124218 -7.296953 -0.370249 21.454558 -0.003111 -0.000021 10.881522 -0.497004 -1.186971 11.759745 -0.870712 -2.418364 11.441914 -0.885170 -2.413054 1.319925 -5.236463 -9.151699 -23.981244 19.161990 -18.760753 159.875502 -81.392195 18.790414 -49.048794 51.741686 1.819271 -59.635296 -13.967357 2.014980 11.373790 10.616302 66.530360 -163.456316 70.591650 18.408832 -0.486439 -61.753573 -25.687082 -28.897185 13.540014 -1.141376 11.150579 -4.814676 -14.874975 
230.583859 0.000000 481.336129 0.000000 110.430523 0.000000 -6.617541 87.552719 3.446870 86.931333 4.641696 -175.311317 -177.964909 6.279800 -173.230741 -26.235500 -4.077560 -1.988889 83.911332 4.323470 13.549882 21.454553 0.003099 0.000001 139.513552 4.454803 -173.028376 -60.304156 -0.201479 8.762023 71.858193 -6.289023 0.049616 21.454560 -0.003111 -0.000020 11.069255 -0.498242 -1.185945 12.135203 -0.869259 -2.417665 11.817373 -0.883712 -2.412361 0.869502 -5.265691 -9.500298 -23.889439 19.565811 -19.298194 158.009853 -81.724114 20.661014 -50.259143 51.084784 0.161279 -61.882141 -13.699551 2.080572 10.345810 9.193742 64.924635 -163.543223 70.600336 18.319265 0.103783 -61.666293 -27.482980 -28.837611 13.489611 -1.136885 11.172251 -6.220880 -19.350035 
